<?xml version="1.0"?>
<svg xmlns="http://www.w3.org/2000/svg" id="Layer_1" enable-background="new 0 0 512.081 512.081" height="512px" viewBox="0 0 512.081 512.081" width="512px"><path d="m21.958 490.097c29.31 29.31 76.752 29.313 106.065 0l127.995-127.995 149.97 149.97 106.066-106.066-149.97-149.97 96.841-96.841 53.034-159.099-159.099 53.033-96.764 96.763-149.892-149.892-106.066 106.066 149.893 149.893-128.073 128.072c-29.243 29.243-29.243 76.824 0 106.066zm360.218-381.431-137.48 137.479 21.213 21.213 137.479-137.479c7.149 7.149 12.977 12.977 21.213 21.213l-201.118 201.119-63.639-63.64 201.119-201.118zm-179.906 264.758-63.64 63.64-63.64-63.64 63.64-63.64zm161.293-73.484-42.426 42.427 21.213 21.213 42.426-42.427 21.213 21.213-42.426 42.426 21.213 21.213 42.426-42.426 42.426 42.426-63.639 63.64-128.757-128.756 63.64-63.64zm75.697-176.616-50.529-50.529 75.794-25.265zm-396.695-17.258 63.639-63.64 42.427 42.426-42.426 42.426 21.213 21.213 42.426-42.426 21.214 21.214-42.426 42.426 21.213 21.213 42.427-42.427 22.613 22.613-63.64 63.64zm.606 299.178 10.607-10.607 63.64 63.64-10.607 10.607c-17.545 17.546-46.094 17.545-63.64 0-17.545-17.546-17.545-46.094 0-63.64z" fill="#008BB9"/><path d="m123.63 358.424h30v30h-30z" transform="matrix(-.707 .707 -.707 -.707 500.707 539.451)" fill="#008BB9"/></svg>
