<?xml version="1.0"?>
<svg xmlns="http://www.w3.org/2000/svg" id="Layer_1" enable-background="new 0 0 512.049 512.049" height="512px" viewBox="0 0 512.049 512.049" width="512px"><path d="m467.024 422.049h-17.49c-6.775-33.66-36.67-61-73.51-61-20.599 0-39.995 8.428-53.986 23.034-12.261-7.847-20.212-21.174-20.942-35.831 0 0 15.535-46.912 15.631-47.203h74.297v-43.732c0-37.288-26.905-68.39-62.316-74.967-.783-10.203-1.982-20.462-3.608-30.683-16.645-104.672-64.489-144.391-69.076-151.667-4.552 7.222-52.426 46.969-69.076 151.667-1.626 10.221-2.824 20.481-3.608 30.683-35.411 6.576-62.316 37.678-62.316 74.966v43.732h74.297c.09.271 15.631 47.202 15.631 47.202-.73 14.658-8.681 27.984-20.942 35.831-13.991-14.605-33.387-23.034-53.986-23.034-36.845 0-66.736 27.346-73.51 61h-17.49c-24.813 0-45 20.187-45 45s20.187 45 45 45h422c24.813 0 45-20.187 45-45s-20.187-44.998-45-44.998zm-248.837-151c-10.11-46.056-7.216-101.344 6.032-150h63.608c13.243 48.645 16.137 103.926 6.029 150zm142.837-13.732v13.732h-36.613c3.432-18 5.242-37.418 5.387-57.476 18.148 6.258 31.226 23.497 31.226 43.744zm-105-209.395c8.453 12.684 15.814 27.289 21.969 43.127h-43.939c6.156-15.838 13.517-30.443 21.97-43.127zm-105 223.127v-13.732c0-20.246 13.077-37.485 31.225-43.744.144 20.063 1.954 39.483 5.385 57.476zm134.106 30-9.938 30h-38.335l-9.938-30zm181.894 181h-422c-8.271 0-15-6.729-15-15s6.729-15 15-15h46v-15c0-24.935 20.607-46 45-46 30.191 0 40.52 26.366 43.826 29.782l11.042-3.964c25.143-9.026 43.369-30.494 48.6-55.818h33.065c5.231 25.324 23.457 46.792 48.6 55.818l11.042 3.964c3.207-3.315 13.72-29.782 43.826-29.782 24.393 0 45 21.065 45 46v15h46c8.271 0 15 6.729 15 15s-6.73 15-15.001 15z" fill="#008BB9"/><path d="m241.024 211.049h30v30h-30z" fill="#008BB9"/><path d="m241.024 151.049h30v30h-30z" fill="#008BB9"/></svg>
